<?xml version="1.0" encoding="utf-8"?>
<!-- Generator: Adobe Illustrator 24.1.2, SVG Export Plug-In . SVG Version: 6.00 Build 0)  -->
<svg version="1.1" id="Layer_1" xmlns="http://www.w3.org/2000/svg" xmlns:xlink="http://www.w3.org/1999/xlink" x="0px" y="0px"
	 viewBox="0 0 595.4 294.7" style="enable-background:new 0 0 595.4 294.7;" xml:space="preserve">
<style type="text/css">
	.st0{fill:#F15E3F;stroke:#F26C21;stroke-width:2.4988;stroke-miterlimit:10;}
	.st1{fill:#323E48;}
	.st2{fill:#F15E3F;}
</style>
<g>
	<path class="st0" d="M-35.9,148.9"/>
	<g>
		<path class="st0" d="M-33.4,122"/>
		<path class="st0" d="M-33.4,122"/>
		<path class="st0" d="M-33.4,122"/>
	</g>
</g>
<g>
	<g>
		<path class="st1" d="M216.4,83.6v8.9h21.5v13.3h-21.5v17.8h-15.9V70h41.2v13.6H216.4z"/>
		<path class="st1" d="M279.9,123.7l-8.4-14.1h-0.6h-8.4v14.1h-15.9V70.1h24.3c14.5,0,23.4,7.2,23.4,19.5c0,6.5-2.8,12-7.8,15.6
			l11.5,18.5H279.9z M262.4,95.5h8.3c4.3,0,7.6-2.4,7.6-6.2c0-3.5-3.2-5.8-7.6-5.8h-8.3V95.5z"/>
		<path class="st1" d="M356.6,96.8c0,15.9-12,27.9-28.9,27.9s-28.9-12.1-28.9-27.9c0-15.9,12-27.9,28.9-27.9S356.6,81,356.6,96.8z
			 M340.5,96.8c0-7-5.3-13.1-12.8-13.1s-12.8,6.1-12.8,13.1s5.3,13.1,12.8,13.1S340.5,103.9,340.5,96.8z"/>
		<path class="st1" d="M413.9,70v53.6h-12.4l-22.4-25.3v25.3h-15.9V70h12.4l22.3,25.8V70H413.9z"/>
		<path class="st1" d="M466.9,83.8H451v39.8h-15.9V83.8h-15.9V70H467L466.9,83.8L466.9,83.8z"/>
		<path class="st1" d="M487.9,70v53.6H472V70H487.9z"/>
		<path class="st1" d="M511.7,83.4v7.2h22.1v12.8h-22.1v7h25.8v13.3h-41.6V70.1h41.6v13.3H511.7z"/>
		<path class="st1" d="M577.2,123.7l-8.4-14.1h-0.6h-8.4v14.1h-15.9V70.1h24.3c14.5,0,23.4,7.2,23.4,19.5c0,6.5-2.8,12-7.8,15.6
			l11.5,18.5H577.2z M559.7,95.5h8.3c4.3,0,7.6-2.4,7.6-6.2c0-3.5-3.2-5.8-7.6-5.8h-8.3V95.5z"/>
	</g>
</g>
<g>
	<g>
		<path class="st1" d="M322.3,143.6v12.3h16.9v2.1h-16.9v12.1H341v2.1h-20.9v-30.6H341v2.1h-18.7V143.6z"/>
		<path class="st1" d="M374.3,141.5v30.6h-2.1l-21.1-26.8v26.8h-2.3v-30.6h2l21.2,26.9v-26.9H374.3z"/>
		<path class="st1" d="M385.9,143.6v12.3h16.9v2.1h-16.9v12.1h18.7v2.1h-20.9v-30.6h20.9v2.1h-18.7V143.6z"/>
		<path class="st1" d="M423.2,160.6h-8.5v11.6h-2.3v-30.6h11c6.9,0,11.5,3.6,11.5,9.6c0,5.1-3.5,8.5-8.9,9.3l10,11.8h-2.9
			L423.2,160.6z M414.7,158.5h8.6c5.5,0,9.4-2.7,9.4-7.4c0-4.7-3.8-7.5-9.4-7.5h-8.6V158.5z"/>
		<path class="st1" d="M455.6,156.4h14.8v15.8h-1.9l-0.2-7.6c-2.1,4.9-6.4,8.1-12.5,8.1c-9,0-15.8-7-15.8-15.8c0-9.1,7.1-16,16-16
			c6.7,0,12.8,4,14.4,10.5h-2.5c-1.5-5.2-6.5-8.3-11.9-8.3c-7.7,0-13.7,6-13.7,13.8c0,7.5,5.8,13.6,13.5,13.6
			c7.1,0,11.6-5.2,12.2-12h-12.4L455.6,156.4L455.6,156.4z"/>
		<path class="st1" d="M501.1,141.5l-12.8,19.4v11.2H486v-11.2l-12.8-19.4h2.6l11.4,17.3l11.4-17.3H501.1z"/>
		<path class="st1" d="M538.7,170.1v2.1H519v-30.6h2.3v28.5H538.7z"/>
		<path class="st1" d="M560.7,143.6H549v28.6h-2.3v-28.6h-11.8v-2.1h25.7L560.7,143.6L560.7,143.6z"/>
		<path class="st1" d="M592.6,156.6c0,9.2-6.5,15.5-16,15.5h-10.3v-30.6h10.3C586.1,141.5,592.6,147.7,592.6,156.6z M590.3,156.6
			c0-7.7-5.6-13-13.7-13h-8.1v26.5h8.1C584.6,170.1,590.3,164.6,590.3,156.6z"/>
	</g>
</g>
<g>
	<path class="st2" d="M126.4,100.4L83.8,15.8L81.5,17l42.6,84.6C124.9,101.1,125.6,100.8,126.4,100.4z"/>
	<path class="st2" d="M118.2,105.2L60.7,29.9l-2.1,1.6l57.5,75.3C116.8,106.3,117.5,105.7,118.2,105.2z"/>
	<path class="st2" d="M130.5,98.7l-29.7-74.4l-2.2,0.9l29.7,74.4C129,99.2,129.7,99,130.5,98.7z"/>
	<path class="st2" d="M114.5,108.1L55.6,43.5l-1.8,1.7l58.9,64.6C113.3,109.2,113.9,108.7,114.5,108.1z"/>
	<path class="st2" d="M107.9,115L44,66.8l-1.4,1.9l63.9,48.2C107,116.2,107.4,115.6,107.9,115z"/>
	<path class="st2" d="M14.3,110l84.1,24c0.2-0.8,0.4-1.6,0.7-2.4l-84.1-24L14.3,110z"/>
	<path class="st2" d="M96.9,151.1l-87,8.9l0.2,2.4l87-8.9C97,152.7,97,151.9,96.9,151.1z"/>
	<path class="st2" d="M96.7,147c0-0.4,0-0.8,0-1.3H2v2.6h94.7C96.7,147.9,96.7,147.5,96.7,147z"/>
	<path class="st2" d="M105,119.1L24.1,69.9l-1.3,2.2l80.9,49.2C104,120.6,104.5,119.8,105,119.1z"/>
	<path class="st2" d="M139.1,96.4l-17.8-85.7l-2.4,0.5l17.8,85.7C137.5,96.7,138.3,96.5,139.1,96.4z"/>
	<path class="st2" d="M100.6,166.6c-0.3-0.7-0.6-1.4-0.8-2.2L25,192.8l0.8,2.2L100.6,166.6z"/>
	<path class="st2" d="M282.4,184.1L198,160c-0.2,0.8-0.4,1.6-0.7,2.4l84.4,24.1L282.4,184.1z"/>
	<path class="st2" d="M19.3,172.9l78.6-15c-0.2-0.8-0.3-1.5-0.4-2.3l-78.6,15L19.3,172.9z"/>
	<path class="st2" d="M97.1,141l-79.6-7.7l-0.2,2.3l79.6,7.7C96.9,142.5,97,141.7,97.1,141z"/>
	<path class="st2" d="M153,95.8l6-94.7l-2.6-0.2l-6,94.7C151.3,95.6,152.2,95.7,153,95.8z"/>
	<path class="st2" d="M143.7,95.8L132.6,1.6L130,1.9l11.1,94.2C142,95.9,142.9,95.8,143.7,95.8z"/>
	<path class="st2" d="M157.3,96.4l12-79.4l-2.3-0.3l-12,79.4C155.8,96.1,156.6,96.2,157.3,96.4z"/>
	<path class="st2" d="M199.3,153.1l80.2,7.7l0.2-2.3l-80.2-7.7C199.5,151.6,199.4,152.4,199.3,153.1z"/>
	<path class="st2" d="M100.6,127.4L12.2,93.5l-0.9,2.4l88.4,33.8C100,129,100.3,128.2,100.6,127.4z"/>
	<path class="st2" d="M182,185.8l59.1,64.8l1.8-1.7l-59.1-64.8C183.3,184.7,182.7,185.3,182,185.8z"/>
	<path class="st2" d="M178.6,188.6l57.7,75.6l2.1-1.6L180.7,187C180,187.6,179.3,188.1,178.6,188.6z"/>
	<path class="st2" d="M170.4,193.5l42.8,84.9l2.3-1.2l-42.8-84.9C172,192.7,171.2,193.1,170.4,193.5z"/>
	<path class="st2" d="M157.6,197.7l17.8,85.8l2.4-0.5L160,197.2C159.2,197.3,158.4,197.5,157.6,197.7z"/>
	<path class="st2" d="M101.4,168.4l-85.2,41.3l1.1,2.3l85.2-41.2C102.1,170,101.7,169.2,101.4,168.4z"/>
	<path class="st2" d="M199.7,145.8c0,0.4,0,0.8,0,1.3c0,0.4,0,0.9,0,1.3h95.2v-2.6L199.7,145.8L199.7,145.8z"/>
	<path class="st2" d="M188.7,178.9l64.3,48.5l1.4-1.9L190.1,177C189.6,177.7,189.1,178.3,188.7,178.9z"/>
	<path class="st2" d="M195.9,166.6l88.9,34l0.9-2.4l-88.9-34C196.5,165,196.2,165.8,195.9,166.6z"/>
	<path class="st2" d="M191.6,174.8l81.3,49.4l1.3-2.2l-81.3-49.4C192.5,173.3,192,174.1,191.6,174.8z"/>
	<path class="st2" d="M166.4,195.2l29.8,74.7l2.2-0.9l-29.8-74.7C167.9,194.6,167.1,194.9,166.4,195.2z"/>
	<path class="st2" d="M118.9,189.4l-52.5,78.9l1.9,1.3l52.5-78.9C120.2,190.3,119.6,189.8,118.9,189.4z"/>
	<path class="st2" d="M115.2,186.6L60.5,255l1.9,1.5l54.7-68.4C116.5,187.6,115.9,187.1,115.2,186.6z"/>
	<path class="st2" d="M153.2,198.3l11.1,94.3l2.6-0.3L155.8,198C154.9,198.1,154.1,198.2,153.2,198.3z"/>
	<path class="st2" d="M105.8,176.3L29,231.8l1.5,2.1l76.8-55.5C106.8,177.7,106.3,177,105.8,176.3z"/>
	<path class="st2" d="M108.8,180.1l-60.4,52.6l1.5,1.8l60.4-52.6C109.8,181.3,109.3,180.7,108.8,180.1z"/>
	<path class="st2" d="M139.6,197.8l-12,79.4l2.3,0.3l12-79.4C141.2,198,140.4,197.9,139.6,197.8z"/>
	<path class="st2" d="M144,198.3l-6,94.8l2.6,0.2l6-94.8C145.7,198.5,144.8,198.4,144,198.3z"/>
	<path class="st2" d="M126.6,193.8l-38,86.9l2.4,1l38-86.9C128.2,194.5,127.4,194.2,126.6,193.8z"/>
	<path class="st2" d="M130.9,195.5l-25.6,76l2.2,0.7l25.6-76C132.4,196.1,131.7,195.8,130.9,195.5z"/>
</g>
<g>
	<path class="st2" d="M102.5,123.4L23.9,85.1l-1.1,2.2l78.6,38.3C101.8,124.8,102.1,124.1,102.5,123.4z"/>
	<path class="st2" d="M98.4,159.9L7.3,185.7l0.7,2.5l91.1-25.8C98.8,161.6,98.6,160.8,98.4,159.9z"/>
	<path class="st2" d="M111.3,111.1L41.6,47l-1.7,1.9l69.7,64.1C110.1,112.4,110.7,111.7,111.3,111.1z"/>
	<path class="st2" d="M97.9,136L5,118l-0.5,2.5l92.9,18C97.6,137.7,97.7,136.8,97.9,136z"/>
	<path class="st2" d="M161.9,97.4l22.3-92.3l-2.5-0.6l-22.3,92.3C160.2,97,161,97.2,161.9,97.4z"/>
	<path class="st2" d="M148,95.6l-2.6-87.5l-2.5,0.1l2.6,87.5C146.4,95.6,147.2,95.6,148,95.6z"/>
	<path class="st2" d="M103.5,172.6l-68.7,41l1.2,2l68.8-41C104.3,173.9,103.9,173.2,103.5,172.6z"/>
	<path class="st2" d="M134.9,97.3L107.6,6.5l-2.5,0.7L132.4,98C133.2,97.8,134,97.5,134.9,97.3z"/>
	<path class="st2" d="M121.8,102.8L78.9,35.1l-2,1.2l42.9,67.7C120.5,103.6,121.2,103.2,121.8,102.8z"/>
	<path class="st2" d="M185.3,182.7l70,64.4l1.7-1.9l-70-64.4C186.5,181.5,185.9,182.1,185.3,182.7z"/>
	<path class="st2" d="M175,191l43.1,67.9l2-1.2l-43.1-68C176.3,190.2,175.6,190.6,175,191z"/>
	<path class="st2" d="M162,196.6l27.4,91l2.5-0.7l-27.4-91C163.7,196.2,162.9,196.4,162,196.6z"/>
	<path class="st2" d="M194,170.6l78.9,38.4l1.1-2.2l-78.9-38.4C194.7,169.2,194.3,169.9,194,170.6z"/>
	<path class="st2" d="M111.9,183.6l-65.4,68.5l1.9,1.8l65.4-68.6C113.2,184.8,112.5,184.2,111.9,183.6z"/>
	<path class="st2" d="M199,155.5c-0.1,0.9-0.3,1.7-0.5,2.5l93.5,18.1l0.5-2.5L199,155.5z"/>
	<path class="st2" d="M122.8,191.8l-38.4,70.4l2,1.1l38.4-70.4C124.1,192.5,123.4,192.2,122.8,191.8z"/>
	<path class="st2" d="M148.7,198.5l2.6,87.6l2.5-0.1l-2.6-87.6C150.3,198.5,149.5,198.5,148.7,198.5z"/>
	<path class="st2" d="M135.1,196.8L112.8,289l2.5,0.6l22.3-92.2C136.8,197.3,135.9,197.1,135.1,196.8z"/>
</g>
</svg>
