<svg xmlns="http://www.w3.org/2000/svg" width="61.105" height="45.358" viewBox="0 0 61.105 45.358">
  <g id="Group_2020" data-name="Group 2020" transform="translate(0)">
    <g id="Group_2018" data-name="Group 2018">
      <path id="Path_810" data-name="Path 810" d="M33.192,30.9,16.746,39.874v2.989a1.475,1.475,0,0,0,1.445,1.5H58.658a1.474,1.474,0,0,0,1.446-1.5V39.871L43.681,30.9" fill="none" stroke="#2d86a6" stroke-linecap="round" stroke-linejoin="round" stroke-width="2"/>
      <path id="Path_811" data-name="Path 811" d="M43.678,30.9c5.957-3.557,5.957-12.829,5.957-12.829l-.006-8.534C48.822,4.69,43.339,1,38.422,1h0c-4.915,0-10.4,3.69-11.2,8.537l-.009,8.536s0,9.012,5.981,12.826" fill="none" stroke="#2d86a6" stroke-linecap="round" stroke-linejoin="round" stroke-width="2"/>
    </g>
    <g id="Group_2019" data-name="Group 2019">
      <path id="Path_812" data-name="Path 812" d="M17.446,30.9,1,39.874v2.989a1.475,1.475,0,0,0,1.446,1.5h9.767" fill="none" stroke="#2d86a6" stroke-linecap="round" stroke-linejoin="round" stroke-width="2"/>
      <path id="Path_813" data-name="Path 813" d="M26.461,1.677A11.452,11.452,0,0,0,22.679,1h0c-4.914,0-10.4,3.69-11.2,8.537l-.009,8.536s0,9.012,5.98,12.826" fill="none" stroke="#2d86a6" stroke-linecap="round" stroke-linejoin="round" stroke-width="2"/>
    </g>
  </g>
</svg>
