<?xml version="1.0" encoding="utf-8"?>
<!-- Generator: Adobe Illustrator 22.1.0, SVG Export Plug-In . SVG Version: 6.00 Build 0)  -->
<svg version="1.1" id="Layer_1" xmlns="http://www.w3.org/2000/svg" xmlns:xlink="http://www.w3.org/1999/xlink" x="0px" y="0px"
	 viewBox="0 0 31.6 21.5" style="enable-background:new 0 0 31.6 21.5;" xml:space="preserve">
<style type="text/css">
	.st0{fill:none;stroke:#2A85A6;stroke-width:2;stroke-linecap:round;stroke-linejoin:round;}
</style>
<g id="Group_1924" transform="translate(-34.243 -44)">
	<path id="Rectangle_1568" class="st0" d="M37.6,50.7h3.6c1.3,0,2.3,1,2.3,2.3v3.6c0,1.3-1,2.3-2.3,2.3h-3.6c-1.3,0-2.3-1-2.3-2.3
		V53C35.2,51.8,36.3,50.7,37.6,50.7z"/>
	<path id="Path_467" class="st0" d="M37.6,48.5v-2c0-0.8,0.7-1.5,1.5-1.5h9.8c0.8,0,1.5,0.7,1.5,1.5v2.1"/>
	<path id="Path_468" class="st0" d="M62.6,61v2c0,0.8-0.7,1.5-1.5,1.5h-9.8c-0.8,0-1.5-0.7-1.5-1.5v-2.1"/>
	<path id="Rectangle_1569" class="st0" d="M48.2,50.7h3.6c1.3,0,2.3,1,2.3,2.3v3.6c0,1.3-1,2.3-2.3,2.3h-3.6c-1.3,0-2.3-1-2.3-2.3
		V53C45.9,51.8,46.9,50.7,48.2,50.7z"/>
	<path id="Rectangle_1570" class="st0" d="M59,50.7h3.6c1.3,0,2.3,1,2.3,2.3v3.6c0,1.3-1,2.3-2.3,2.3H59c-1.3,0-2.3-1-2.3-2.3V53
		C56.6,51.8,57.7,50.7,59,50.7z"/>
</g>
</svg>
