<?xml version="1.0" encoding="utf-8"?>
<!-- Generator: Adobe Illustrator 22.1.0, SVG Export Plug-In . SVG Version: 6.00 Build 0)  -->
<svg version="1.1" id="Layer_1" xmlns="http://www.w3.org/2000/svg" xmlns:xlink="http://www.w3.org/1999/xlink" x="0px" y="0px"
	 viewBox="0 0 33.8 33.8" style="enable-background:new 0 0 33.8 33.8;" xml:space="preserve">
<style type="text/css">
	.st0{fill:#2195B0;}
</style>
<g id="Group_1956" transform="translate(-47.574 -1957.941)">
	<g id="Group_1972" transform="translate(47.574 1957.941)">
		<g id="Group_1956-2" transform="translate(25.855 3.151)">
			<path id="Path_574" class="st0" d="M7.3,14.5c-0.4,0-0.7-0.3-0.7-0.7l0,0c0-5-2.4-9.6-6.4-12.6C0,1-0.1,0.6,0.1,0.3
				C0.3,0,0.8-0.1,1.1,0.1C5.4,3.3,8,8.4,8,13.8C8,14.2,7.7,14.5,7.3,14.5z"/>
		</g>
		<g id="Group_1957" transform="translate(8.27 0)">
			<path id="Path_575" class="st0" d="M0.7,3.4C0.3,3.4,0,3.1,0,2.8c0-0.2,0.1-0.5,0.3-0.6C2.9,0.8,5.7,0,8.6,0
				c2.6,0,5.1,0.6,7.5,1.7c0.3,0.2,0.5,0.6,0.3,0.9s-0.6,0.5-0.9,0.3C13.4,1.9,11,1.3,8.6,1.3C6,1.3,3.3,2,1,3.3
				C0.9,3.4,0.8,3.4,0.7,3.4z"/>
		</g>
		<g id="Group_1958" transform="translate(0 3.792)">
			<path id="Path_576" class="st0" d="M0.7,13.8c-0.4,0-0.7-0.3-0.7-0.7c0,0,0,0,0,0c0-5,2.2-9.8,6.1-13C6.3-0.1,6.8,0,7,0.2
				c0.2,0.3,0.2,0.7-0.1,0.9c-3.5,3-5.6,7.4-5.6,12C1.3,13.5,1,13.8,0.7,13.8C0.7,13.8,0.7,13.8,0.7,13.8z"/>
		</g>
		<g id="Group_1959" transform="translate(28.714 20.582)">
			<path id="Path_577" class="st0" d="M0.7,7.5c0,0-0.1,0-0.1,0C0.2,7.4-0.1,7,0,6.7c0.5-2,0.8-4,1-6.1C1.1,0.2,1.4,0,1.8,0
				c0.4,0,0.6,0.4,0.6,0.7c-0.2,2.1-0.6,4.2-1,6.2C1.2,7.2,1,7.5,0.7,7.5z"/>
		</g>
		<g id="Group_1960" transform="translate(17.991 3.267)">
			<path id="Path_578" class="st0" d="M12.5,15.6c-0.4,0-0.7-0.3-0.7-0.7c0,0,0,0,0,0c0-6.9-5-12.8-11.3-13.6C0.2,1.3,0,0.9,0,0.6
				C0.1,0.2,0.4,0,0.7,0c7,0.9,12.5,7.4,12.5,14.9C13.2,15.3,12.9,15.6,12.5,15.6C12.5,15.6,12.5,15.6,12.5,15.6z"/>
		</g>
		<g id="Group_1961" transform="translate(1.564 13.128)">
			<path id="Path_579" class="st0" d="M0.7,11.5c-0.4,0-0.7-0.3-0.7-0.7c0-0.1,0-0.2,0.1-0.3c1.2-2,1.7-4.3,1.5-6.6V3.8
				c0-1.1,0.1-2.2,0.4-3.3C2.1,0.1,2.4-0.1,2.8,0c0.4,0.1,0.6,0.4,0.5,0.8c-0.2,1-0.4,2-0.4,3c0.2,2.6-0.4,5.1-1.7,7.3
				C1.1,11.3,0.9,11.5,0.7,11.5z"/>
		</g>
		<g id="Group_1962" transform="translate(4.516 3.24)">
			<path id="Path_580" class="st0" d="M0.7,8.5c-0.1,0-0.2,0-0.3-0.1C0,8.3-0.1,7.9,0.1,7.6c0,0,0,0,0,0c2.1-4.2,6.1-7,10.7-7.5
				c0.4,0,0.7,0.2,0.7,0.6s-0.2,0.7-0.6,0.7C6.8,1.8,3.1,4.4,1.2,8.1C1.1,8.4,0.9,8.5,0.7,8.5z"/>
		</g>
		<g id="Group_1963" transform="translate(24.161 10.226)">
			<path id="Path_581" class="st0" d="M1.1,21.4c-0.1,0-0.2,0-0.3-0.1c-0.3-0.1-0.5-0.5-0.3-0.9c0,0,0,0,0,0c1.5-4,2.2-8.3,2.1-12.6
				c0-2.5-0.8-4.9-2.4-6.8C-0.1,0.8,0,0.3,0.3,0.1C0.6-0.1,1,0,1.2,0.3C3,2.4,3.9,5.1,3.9,7.9C4,12.3,3.3,16.8,1.7,21
				C1.6,21.2,1.4,21.4,1.1,21.4z"/>
		</g>
		<g id="Group_1964" transform="translate(3.78 21.667)">
			<path id="Path_582" class="st0" d="M0.7,6.4C0.3,6.4,0,6.1,0,5.7c0-0.1,0-0.3,0.1-0.4C1,3.9,1.7,2.2,2.1,0.5C2.1,0.2,2.5,0,2.8,0
				c0.3,0.1,0.6,0.4,0.5,0.8C3,2.7,2.2,4.5,1.2,6.1C1.1,6.3,0.9,6.4,0.7,6.4z"/>
		</g>
		<g id="Group_1965" transform="translate(6.166 6.303)">
			<path id="Path_583" class="st0" d="M0.7,14L0.7,14c-0.4,0-0.7-0.3-0.7-0.7c0,0,0,0,0,0c0.1-1.5,0.1-2.6,0.1-2.6
				C0.1,4.8,4.9,0,10.7,0c2.1,0,4.2,0.6,6,1.8C17,2,17.1,2.4,16.9,2.7c-0.2,0.3-0.6,0.4-0.9,0.2C11.7,0,5.9,1.2,3,5.4
				C2,7,1.4,8.8,1.4,10.6c0,0.1,0,1.2-0.1,2.7C1.3,13.7,1,14,0.7,14z"/>
		</g>
		<g id="Group_1966" transform="translate(21.008 22.55)">
			<path id="Path_584" class="st0" d="M0.7,10.7C0.3,10.7,0,10.4,0,10C0,10,0,9.9,0,9.8c0,0,0.9-2.8,1.6-5.7C1.9,3,2.1,1.8,2.2,0.6
				C2.3,0.2,2.6,0,3,0c0.4,0,0.6,0.4,0.6,0.7C3.4,2,3.2,3.3,2.9,4.5c-0.7,2.9-1.6,5.7-1.6,5.8C1.2,10.5,0.9,10.7,0.7,10.7z"/>
		</g>
		<g id="Group_1967" transform="translate(13.101 9.455)">
			<path id="Path_585" class="st0" d="M11.1,11.7L11.1,11.7c-0.4,0-0.7-0.3-0.7-0.7c0.1-1.2,0-2.3-0.1-3.5C10,4.2,7.2,1.5,3.8,1.3
				c-1,0-2,0.2-2.8,0.7c-0.3,0.2-0.7,0-0.9-0.3S0,1,0.4,0.8C1.4,0.3,2.6,0,3.8,0c4.1,0.2,7.4,3.3,7.8,7.4c0.1,1.2,0.2,2.5,0.1,3.7
				C11.7,11.5,11.4,11.7,11.1,11.7z"/>
		</g>
		<g id="Group_1968" transform="translate(6.109 12.157)">
			<path id="Path_586" class="st0" d="M0.7,18.2c-0.4,0-0.7-0.3-0.7-0.7c0-0.2,0.1-0.4,0.2-0.5c1.4-1.7,2.4-3.7,2.7-5.9
				c0.3-1.4,0.4-2.9,0.3-4.3c0-0.7,0-1.4,0.1-2.2c0-1.6,0.6-3.2,1.5-4.5C5.1,0,5.5-0.1,5.8,0.1c0.3,0.2,0.3,0.6,0.1,0.9
				C5.1,2.2,4.7,3.5,4.6,4.9c-0.1,0.7-0.1,1.3-0.1,2c0,1.5-0.1,3.1-0.4,4.6c-0.4,2.4-1.5,4.7-3.1,6.6C1,18.1,0.8,18.2,0.7,18.2z"/>
		</g>
		<g id="Group_1969" transform="translate(12.516 12.607)">
			<path id="Path_587" class="st0" d="M5.3,21.2c-0.1,0-0.2,0-0.3-0.1c-0.3-0.1-0.5-0.5-0.3-0.9c0,0,0,0,0,0c0,0,0.9-2,1.3-3.2
				L6,16.9c0.5-1.5,0.9-3.1,1.1-4.7c0.5-2.5,0.5-5,0.3-7.5C7.2,3.1,6,1.3,4.4,1.3c-1.7,0.1-3,1.4-3,3.1C1.3,5.3,1.3,6.1,1.3,7
				c0,0.4-0.3,0.7-0.6,0.7h0C0.3,7.7,0,7.4,0,7c0-0.9,0-1.8,0.1-2.7C0.1,1.9,2,0,4.4,0c2.4,0,4.1,2.3,4.3,4.5
				C9,7.1,8.9,9.8,8.5,12.3c-0.3,1.7-0.7,3.3-1.2,4.9l-0.1,0.2c-0.4,1.3-1.3,3.3-1.3,3.4C5.8,21.1,5.6,21.2,5.3,21.2z"/>
		</g>
		<g id="Group_1970" transform="translate(9.349 21.819)">
			<path id="Path_588" class="st0" d="M0.7,10.5C0.3,10.5,0,10.2,0,9.9c0-0.1,0-0.3,0.1-0.4c0.8-1.1,1.5-2.3,2-3.6
				c0.6-1.7,1-3.5,1.1-5.3C3.2,0.2,3.5,0,3.9,0c0.3,0,0.6,0.3,0.6,0.7C4.4,2.6,4,4.5,3.3,6.3C2.8,7.7,2.1,9,1.2,10.2
				C1.1,10.4,0.9,10.5,0.7,10.5z"/>
		</g>
		<g id="Group_1971" transform="translate(12.939 16.065)">
			<path id="Path_589" class="st0" d="M0.7,17.6c-0.4,0-0.7-0.3-0.7-0.7c0-0.1,0-0.3,0.1-0.4c1.4-2.2,2.3-4.7,2.7-7.3
				c0.5-2.8,0.7-5.7,0.5-8.5C3.3,0.4,3.5,0,3.9,0s0.7,0.2,0.7,0.6c0.2,3,0,6-0.5,8.9c-0.4,2.8-1.4,5.4-2.9,7.8
				C1.1,17.5,0.9,17.6,0.7,17.6z"/>
		</g>
	</g>
</g>
</svg>
