<svg xmlns="http://www.w3.org/2000/svg" width="31.671" height="36.931" viewBox="0 0 31.671 36.931">
  <g id="Group_1997" data-name="Group 1997" transform="translate(-3592.688 -1816.821)">
    <path id="Path_613" data-name="Path 613" d="M3597.7,1827.827h2.378v-2.378H3597.7Zm1.162-1.215h.054v.053h-.054Z" fill="#0d7594"/>
    <path id="Path_614" data-name="Path 614" d="M3601.683,1827.827h2.378v-2.378h-2.378Zm1.162-1.215h.053v.053h-.053Z" fill="#0d7594"/>
    <path id="Path_615" data-name="Path 615" d="M3608.219,1825.449h-2.378v2.378h2.378Zm-1.162,1.216H3607v-.053h.054Z" fill="#0d7594"/>
    <path id="Path_616" data-name="Path 616" d="M3597.7,1832.668h2.378v-2.378H3597.7Zm1.162-1.216h.054v.054h-.054Z" fill="#0d7594"/>
    <path id="Path_617" data-name="Path 617" d="M3601.683,1832.668h2.378v-2.378h-2.378Zm1.162-1.216h.053v.054h-.053Z" fill="#0d7594"/>
    <path id="Path_618" data-name="Path 618" d="M3608.219,1830.29h-2.378v2.378h2.378Zm-1.162,1.216H3607v-.054h.054Z" fill="#0d7594"/>
    <path id="Path_619" data-name="Path 619" d="M3597.7,1837.693h2.378v-2.378H3597.7Zm1.162-1.216h.054v.054h-.054Z" fill="#0d7594"/>
    <path id="Path_620" data-name="Path 620" d="M3601.683,1837.693h2.378v-2.378h-2.378Zm1.162-1.216h.053v.054h-.053Z" fill="#0d7594"/>
    <path id="Path_621" data-name="Path 621" d="M3597.7,1842.6h2.378v-2.378H3597.7Zm1.162-1.215h.054v.053h-.054Z" fill="#0d7594"/>
    <path id="Path_622" data-name="Path 622" d="M3601.683,1842.6h2.378v-2.378h-2.378Zm1.162-1.215h.053v.053h-.053Z" fill="#0d7594"/>
    <path id="Path_623" data-name="Path 623" d="M3608.219,1835.315h-2.378v2.378h2.378Zm-1.162,1.216H3607v-.054h.054Z" fill="#0d7594"/>
    <path id="Path_624" data-name="Path 624" d="M3622.417,1844.694l1.3-1.216.645-.6-.216-.857a9.435,9.435,0,0,0-.654-1.8l-.375-.775-.859-.067-1.81-.141a7.257,7.257,0,0,0-1.289-1.1l-.405-1.74-.2-.848-.835-.248a9.415,9.415,0,0,0-.954-.232,9.545,9.545,0,0,0-.972-.131l-.869-.072-.493.718-1.026,1.5c-.063.014-.123.037-.185.053l.009-14.856a1.468,1.468,0,0,0-1.424-1.505h-1.9v-2.447a1.468,1.468,0,0,0-1.424-1.505H3597.44a1.469,1.469,0,0,0-1.424,1.493l-.016,2.1h-1.888a1.469,1.469,0,0,0-1.424,1.509v25.8a1.468,1.468,0,0,0,1.424,1.506H3609.6a7.455,7.455,0,0,0,1.348,1.168l.432,1.85.2.859.847.243c.286.082.574.15.858.2s.578.095.873.123l.877.082.5-.727,1.06-1.545a7.4,7.4,0,0,0,1.769-.623l1.754.532.85.258.634-.621a9.4,9.4,0,0,0,1.169-1.387l.492-.715-.374-.783-.8-1.667a7.3,7.3,0,0,0,.21-.842A7.168,7.168,0,0,0,3622.417,1844.694Zm-16.546,1.762a9.462,9.462,0,0,0,.278.944h-11.638v-25.164h3.3l.025-3.592h10.24v3.952h3.328l-.01,14.886-1.312-.4-.824-.25-.631.585a9.392,9.392,0,0,0-1.264,1.439l-.513.719.321.672h-1.349v2.378h2.055c-.021.093-.052.183-.069.276a7.542,7.542,0,0,0-.107.807l-1.4,1.308-.633.594Zm1.168-5.044v.053h-.054v-.053Zm13.886,2.624a5.887,5.887,0,0,1-.458,2.517l1.068,2.235a7.911,7.911,0,0,1-.982,1.166l-2.366-.718a5.864,5.864,0,0,1-2.469.87l-1.421,2.07c-.244-.023-.489-.056-.734-.1s-.487-.1-.723-.171l-.574-2.464a5.861,5.861,0,0,1-1.939-1.686l-2.5-.195a7.847,7.847,0,0,1-.491-1.444l1.85-1.733a5.913,5.913,0,0,1,.472-2.418l-1.068-2.234a7.9,7.9,0,0,1,1.063-1.209l2.373.72a5.88,5.88,0,0,1,2.267-.8l1.379-2.01a7.879,7.879,0,0,1,1.623.305l.549,2.355a5.868,5.868,0,0,1,1.868,1.588l2.432.189a7.9,7.9,0,0,1,.55,1.513Z" fill="#0d7594"/>
    <path id="Path_625" data-name="Path 625" d="M3615.866,1839.84a4.548,4.548,0,1,0-1.683,8.938,4.62,4.62,0,0,0,.845.079,4.548,4.548,0,0,0,.838-9.017Zm2.154,5.033a3.05,3.05,0,1,1-2.432-3.559A3.05,3.05,0,0,1,3618.02,1844.873Z" fill="#0d7594"/>
  </g>
</svg>
