<?xml version="1.0" encoding="utf-8"?>
<!-- Generator: Adobe Illustrator 22.1.0, SVG Export Plug-In . SVG Version: 6.00 Build 0)  -->
<svg version="1.1" id="Layer_1" xmlns="http://www.w3.org/2000/svg" xmlns:xlink="http://www.w3.org/1999/xlink" x="0px" y="0px"
	 viewBox="0 0 32.4 33.8" style="enable-background:new 0 0 32.4 33.8;" xml:space="preserve">
<style type="text/css">
	.st0{fill:none;stroke:#2195B0;stroke-width:1.75;stroke-linecap:round;stroke-linejoin:round;}
	.st1{fill:none;stroke:#2195B0;stroke-width:2;stroke-linecap:round;stroke-linejoin:round;}
	.st2{fill:#2195B0;}
</style>
<g id="Group_1982" transform="translate(-2673.949 -2159.167)">
	<g id="Group_1982-2" transform="translate(2674.824 2160.049)">
		<path id="Path_607" class="st0" d="M3.3,0h10.8v3.4h3.3v7.3h2.8V7.7h7.6v2.6h2.9V32H0V3.1h3.2L3.3,0z"/>
		<path id="Path_608" class="st0" d="M0,32V3.1h3.2l0-3.1"/>
		<line id="Line_38" class="st0" x1="17.4" y1="10.1" x2="17.4" y2="31.7"/>
	</g>
	<rect id="Rectangle_1588" x="2681.3" y="2187" class="st1" width="4.6" height="4.8"/>
	<rect id="Rectangle_1589" x="2697.3" y="2188.8" class="st1" width="3.1" height="3.1"/>
	<g id="Group_1983" transform="translate(2695.67 2173.923)">
		<rect id="Rectangle_1590" x="0" y="0" class="st2" width="2.1" height="2.1"/>
		<rect id="Rectangle_1591" x="3.9" y="0" class="st2" width="2.1" height="2.1"/>
		<rect id="Rectangle_1592" x="0" y="4.2" class="st2" width="2.1" height="2.1"/>
		<rect id="Rectangle_1593" x="3.9" y="4.2" class="st2" width="2.1" height="2.1"/>
		<rect id="Rectangle_1594" x="0" y="8.6" class="st2" width="2.1" height="2.1"/>
		<rect id="Rectangle_1595" x="3.9" y="8.6" class="st2" width="2.1" height="2.1"/>
	</g>
	<g id="Rectangle_1596" transform="translate(2678.892 2167.433)">
		<rect x="0" y="0" class="st2" width="2.1" height="2.1"/>
		<rect x="1" y="1" class="st1" width="0.1" height="0.1"/>
	</g>
	<g id="Rectangle_1597" transform="translate(2682.352 2167.433)">
		<rect x="0" y="0" class="st2" width="2.1" height="2.1"/>
		<rect x="1" y="1" class="st1" width="0.1" height="0.1"/>
	</g>
	<g id="Rectangle_1598" transform="translate(2685.963 2167.433)">
		<rect x="0" y="0" class="st2" width="2.1" height="2.1"/>
		<rect x="1" y="1" class="st1" width="0.1" height="0.1"/>
	</g>
	<g id="Group_1984" transform="translate(2678.892 2171.635)">
		<g id="Rectangle_1599" transform="translate(0 0)">
			<rect x="0" y="0" class="st2" width="2.1" height="2.1"/>
			<rect x="1" y="1" class="st1" width="0.1" height="0.1"/>
		</g>
		<g id="Rectangle_1600" transform="translate(3.46 0)">
			<rect x="0" y="0" class="st2" width="2.1" height="2.1"/>
			<rect x="1" y="1" class="st1" width="0.1" height="0.1"/>
		</g>
		<g id="Rectangle_1601" transform="translate(7.07 0)">
			<rect x="0" y="0" class="st2" width="2.1" height="2.1"/>
			<rect x="1" y="1" class="st1" width="0.1" height="0.1"/>
		</g>
	</g>
	<g id="Group_1985" transform="translate(2678.892 2175.998)">
		<g id="Rectangle_1602" transform="translate(0 0)">
			<rect x="0" y="0" class="st2" width="2.1" height="2.1"/>
			<rect x="1" y="1" class="st1" width="0.1" height="0.1"/>
		</g>
		<g id="Rectangle_1603" transform="translate(3.46 0)">
			<rect x="0" y="0" class="st2" width="2.1" height="2.1"/>
			<rect x="1" y="1" class="st1" width="0.1" height="0.1"/>
		</g>
		<g id="Rectangle_1604" transform="translate(7.07 0)">
			<rect x="0" y="0" class="st2" width="2.1" height="2.1"/>
			<rect x="1" y="1" class="st1" width="0.1" height="0.1"/>
		</g>
	</g>
	<g id="Group_1986" transform="translate(2678.892 2180.258)">
		<g id="Rectangle_1605">
			<rect x="0" y="0" class="st2" width="2.1" height="2.1"/>
			<rect x="1" y="1" class="st1" width="0.1" height="0.1"/>
		</g>
		<g id="Rectangle_1606" transform="translate(3.46)">
			<rect x="0" y="0" class="st2" width="2.1" height="2.1"/>
			<rect x="1" y="1" class="st1" width="0.1" height="0.1"/>
		</g>
		<g id="Rectangle_1607" transform="translate(7.07)">
			<rect x="0" y="0" class="st2" width="2.1" height="2.1"/>
			<rect x="1" y="1" class="st1" width="0.1" height="0.1"/>
		</g>
	</g>
</g>
</svg>
