<?xml version="1.0" encoding="utf-8"?>
<!-- Generator: Adobe Illustrator 25.3.1, SVG Export Plug-In . SVG Version: 6.00 Build 0)  -->
<svg version="1.1" id="Layer_1" xmlns="http://www.w3.org/2000/svg" xmlns:xlink="http://www.w3.org/1999/xlink" x="0px" y="0px"
	 width="90px" height="90px" viewBox="0 0 90 90" style="enable-background:new 0 0 90 90;" xml:space="preserve">
<style type="text/css">
	.st0{fill:none;stroke:#025172;stroke-width:3;stroke-linecap:round;stroke-linejoin:round;stroke-miterlimit:10;}
	.st1{fill:none;stroke:#025172;stroke-width:3;stroke-linecap:round;stroke-miterlimit:10;}
</style>
<g>
	<polygon class="st0" points="4.5,27.5 43,6.1 83.4,27.5 	"/>
	<g>
		<g>
			<line class="st1" x1="14.8" y1="36.3" x2="14.8" y2="60.9"/>
			<line class="st1" x1="11.9" y1="36.3" x2="17.6" y2="36.3"/>
			<line class="st1" x1="11.9" y1="60.9" x2="17.6" y2="60.9"/>
		</g>
		<g>
			<line class="st1" x1="29.4" y1="36.3" x2="29.4" y2="60.9"/>
			<line class="st1" x1="26.5" y1="36.3" x2="32.2" y2="36.3"/>
			<line class="st1" x1="26.5" y1="60.9" x2="32.2" y2="60.9"/>
		</g>
		<g>
			<line class="st1" x1="44" y1="36.3" x2="44" y2="60.9"/>
			<line class="st1" x1="41.1" y1="36.3" x2="46.8" y2="36.3"/>
			<line class="st1" x1="41.1" y1="60.9" x2="46.8" y2="60.9"/>
		</g>
		<g>
			<line class="st1" x1="58.6" y1="36.3" x2="58.6" y2="60.9"/>
			<line class="st1" x1="55.7" y1="36.3" x2="61.4" y2="36.3"/>
			<line class="st1" x1="55.7" y1="60.9" x2="61.4" y2="60.9"/>
		</g>
		<g>
			<line class="st1" x1="73.2" y1="36.3" x2="73.2" y2="60.9"/>
			<line class="st1" x1="70.3" y1="36.3" x2="76" y2="36.3"/>
			<line class="st1" x1="70.3" y1="60.9" x2="76" y2="60.9"/>
		</g>
	</g>
	<line class="st1" x1="80.6" y1="70" x2="7.4" y2="70"/>
	<line class="st1" x1="83.4" y1="77.5" x2="4.5" y2="77.5"/>
</g>
</svg>
