<?xml version="1.0" encoding="utf-8"?>
<!-- Generator: Adobe Illustrator 22.1.0, SVG Export Plug-In . SVG Version: 6.00 Build 0)  -->
<svg version="1.1" id="Layer_1" xmlns="http://www.w3.org/2000/svg" xmlns:xlink="http://www.w3.org/1999/xlink" x="0px" y="0px"
	 viewBox="0 0 968.7 185.1" style="enable-background:new 0 0 968.7 185.1;" xml:space="preserve">
<style type="text/css">
	.st0{fill:#FFFFFF;}
</style>
<g>
	<path class="st0" d="M418.9,47.1h13.4v47.6h60V47.1h13.4v112.4h-13.4v-52.3h-60v52.3h-13.4V47.1z"/>
	<path class="st0" d="M517.3,122.3c0-5.9,1-11.2,3.1-15.9c2-4.7,4.7-8.9,8.2-12.3c3.5-3.5,7.7-6.1,12.6-8c4.9-2,10.2-2.8,15.9-2.8
		s11,1,15.9,2.8c4.9,2,9.1,4.6,12.6,8c3.5,3.5,6.3,7.5,8.2,12.3c2,4.7,3.1,10.1,3.1,15.9c0,5.9-1,11.2-3.1,15.9
		c-2,4.7-4.7,8.9-8.2,12.3c-3.5,3.5-7.7,6.1-12.6,8c-4.9,2-10.2,2.8-15.9,2.8s-11-1-15.9-2.8c-4.9-2-9.1-4.6-12.6-8
		c-3.5-3.5-6.3-7.5-8.2-12.3C518.3,133.3,517.3,128.2,517.3,122.3z M530.7,122.3c0,3.9,0.6,7.5,1.8,10.9c1.3,3.4,2.9,6.3,5.3,8.8
		c2.4,2.5,5.2,4.5,8.4,5.9s6.8,2.1,10.9,2.1s7.7-0.7,10.9-2.1c3.2-1.4,6-3.4,8.4-5.9s4-5.4,5.3-8.8c1.3-3.4,1.8-7,1.8-10.9
		s-0.6-7.5-1.8-10.9c-1.3-3.4-2.9-6.3-5.3-8.8c-2.4-2.5-5.2-4.5-8.4-5.9s-6.8-2.1-10.9-2.1s-7.7,0.7-10.9,2.1s-6,3.4-8.4,5.9
		s-4,5.4-5.3,8.8S530.7,118.4,530.7,122.3z"/>
	<path class="st0" d="M608.9,122.3c0-5.9,1-11.2,3.1-15.9c2-4.7,4.7-8.9,8.2-12.3c3.5-3.5,7.7-6.1,12.6-8c4.9-2,10.2-2.8,15.9-2.8
		s11,1,15.9,2.8c4.9,2,9.1,4.6,12.6,8c3.5,3.5,6.3,7.5,8.2,12.3c2,4.7,3.1,10.1,3.1,15.9c0,5.9-1,11.2-3.1,15.9
		c-2,4.7-4.7,8.9-8.2,12.3c-3.5,3.5-7.7,6.1-12.6,8c-4.9,2-10.2,2.8-15.9,2.8s-11-1-15.9-2.8c-4.9-2-9.1-4.6-12.6-8
		c-3.5-3.5-6.3-7.5-8.2-12.3C609.9,133.3,608.9,128.2,608.9,122.3z M622.1,122.3c0,3.9,0.6,7.5,1.8,10.9c1.3,3.4,2.9,6.3,5.3,8.8
		c2.4,2.5,5.2,4.5,8.4,5.9s6.8,2.1,10.9,2.1c4,0,7.7-0.7,10.9-2.1c3.2-1.4,6-3.4,8.4-5.9s4-5.4,5.3-8.8c1.3-3.4,1.8-7,1.8-10.9
		s-0.6-7.5-1.8-10.9c-1.3-3.4-2.9-6.3-5.3-8.8c-2.4-2.5-5.2-4.5-8.4-5.9s-6.8-2.1-10.9-2.1c-4,0-7.7,0.7-10.9,2.1s-6,3.4-8.4,5.9
		s-4,5.4-5.3,8.8C622.8,114.8,622.1,118.4,622.1,122.3z"/>
	<path class="st0" d="M737,159.4h-13.7L693,85.1h14.5l23.2,58.2h0.3l22.1-58.2h13.4L737,159.4z"/>
	<path class="st0" d="M843.4,145.9c-4.5,5.7-9.4,9.8-14.7,12s-11.4,3.4-18.4,3.4c-5.9,0-11-1-15.8-3.1c-4.6-2.1-8.7-4.9-11.9-8.4
		s-5.7-7.7-7.4-12.4c-1.8-4.7-2.7-9.9-2.7-15.2c0-5.7,1-11,2.8-15.8c2-4.7,4.6-8.9,8-12.4s7.4-6.1,12-8c4.6-2,9.8-2.8,15.2-2.8
		c5.2,0,9.9,0.8,14.2,2.7c4.3,1.8,8.1,4.3,11.2,7.7s5.6,7.4,7.3,12.3s2.5,10.3,2.5,16.5v3.9h-60c0.3,3.2,1,6.3,2.2,9.1
		c1.3,2.9,3.1,5.4,5.2,7.7s4.6,3.9,7.4,5.2s6,2,9.4,2c5.4,0,9.9-1,13.7-2.8c3.8-2,7-4.7,10.1-8.4L843.4,145.9z M832.8,115.6
		c-0.3-6.4-2.2-11.4-6.1-15.2c-3.9-3.8-9.4-5.7-16.2-5.7s-12.4,2-16.6,5.7s-6.8,8.9-7.7,15.2H832.8z"/>
	<path class="st0" d="M862.5,102.8c0-3.4-0.1-6.6-0.3-9.5c-0.3-2.9-0.3-5.7-0.3-8.1h11.7c0,2,0,4,0.1,6s0.1,4,0.1,6.1h0.3
		c0.8-1.8,2.1-3.5,3.6-5.3c1.5-1.7,3.4-3.2,5.4-4.5c2.1-1.3,4.5-2.4,7.1-3.2c2.7-0.8,5.4-1.3,8.5-1.3c0.8,0,1.7,0,2.5,0.1
		s1.7,0.3,2.5,0.7l-0.8,12.6c-2.1-0.7-4.3-1-6.7-1c-7.7,0-13.1,2.5-16.6,7.4s-5.2,11.7-5.2,20.2v36.2H862v-56.5h0.5V102.8z"/>
	<path class="st0" d="M920,139.9c2.4,3.1,5.2,5.4,8,7.3c2.9,1.8,6.6,2.7,11,2.7c2,0,3.8-0.3,5.9-0.7c2-0.4,3.8-1.1,5.3-2.1
		s2.8-2.1,3.8-3.6c1-1.4,1.4-3.2,1.4-5.2s-0.4-3.6-1.4-4.9c-0.8-1.3-2.1-2.4-3.6-3.2s-3.2-1.7-5-2.1c-2-0.6-3.9-1-5.9-1.4
		c-3.5-0.7-6.8-1.5-10.1-2.5c-3.2-1-6-2.2-8.4-3.8c-2.4-1.5-4.3-3.5-5.7-6c-1.4-2.4-2.1-5.6-2.1-9.4c0-3.6,0.8-6.8,2.4-9.5
		c1.5-2.8,3.8-5,6.3-6.8c2.7-1.8,5.6-3.2,8.9-4.2c3.4-1,6.7-1.4,10.2-1.4c5.3,0,10.2,1.1,14.7,3.2s8,5.6,10.6,10.3l-10.3,6.8
		c-1.5-2.7-3.6-4.7-6.3-6.4c-2.7-1.7-5.7-2.5-9.5-2.5c-1.7,0-3.4,0.3-5.2,0.7c-1.8,0.4-3.4,1.1-4.7,2s-2.5,2-3.4,3.2
		c-0.8,1.3-1.4,2.8-1.4,4.5c0,1.5,0.6,2.9,1.5,4c1,1.1,2.4,2.1,4.2,2.9s3.8,1.5,6,2.2s4.6,1.1,7.1,1.5c3.2,0.7,6.4,1.4,9.4,2.5
		c2.9,1,5.6,2.4,7.8,4c2.2,1.7,3.9,3.8,5.3,6.4c1.3,2.5,2,5.7,2,9.4c0,4.2-0.8,7.8-2.5,10.7s-3.9,5.4-6.7,7.3c-2.8,1.8-6,3.2-9.5,4
		s-7.1,1.3-10.9,1.3c-6.3,0-11.9-1-16.5-2.9c-4.6-2-8.8-5.6-12.4-10.9L920,139.9z"/>
</g>
<g>
	<g>
		<path class="st0" d="M0,47.1h42.9c21.9,0,54.6,14.7,54.6,55.7s-32.8,55.7-54.6,55.7H0V47.1z M13.3,146.3h25.1
			c25.5,0,44.8-12.8,44.8-43.4S63.8,59.5,38.4,59.5H13.3V146.3z"/>
	</g>
	<g>
		<path class="st0" d="M283.4,47.1h34.1c18.4,0,37,7,37,27.4c0,12.8-7.5,21.5-19.5,25.1v0.3c14.4,1.3,25.1,12.7,25.1,27.4
			c0,24.6-22.8,31.1-43.4,31.1h-33.2V47.1H283.4z M296.6,94.4h18.3c12.4,0,25.4-2.7,25.4-18.1c0-13.7-12-16.9-23.9-16.9h-19.7
			L296.6,94.4L296.6,94.4z M296.6,146.3H319c12.8,0,26.9-5.2,26.9-19.4c0-15.6-13.3-20.2-26.7-20.2h-22.6L296.6,146.3L296.6,146.3z"
			/>
	</g>
	<path class="st0" d="M123.1,29.8l125.8,130.7l-13.3,12.8l-19.8-20.5l-19.7,19c-9.2,8.8-21.2,13.5-33.9,13.4l0,0
		c-12.7-0.3-24.6-5.4-33.4-14.5c-8.8-9.2-13.5-21.2-13.4-33.9c0.3-12.7,5.4-24.6,14.5-33.5L143,90.7l12.8,13.3l-13.1,12.7
		c-5.6,5.4-8.8,12.7-8.9,20.5c-0.1,7.8,2.8,15.2,8.2,20.8s12.7,8.8,20.5,8.9l0,0c7.8,0.1,15.2-2.8,20.8-8.2l19.7-19l-80-82.9
		L123.1,29.8L123.1,29.8z"/>
	<path class="st0" d="M214.3,50.7v19c4,1.5,7.4,3.9,10.6,7.1c5.4,5.6,8.4,13,8.2,20.8c-0.1,7.8-3.4,15.1-8.9,20.5l-1.7,1.5
		l12.8,13.1l1.7-1.5c9.2-8.8,14.4-20.8,14.5-33.5c0.3-12.7-4.5-24.8-13.4-33.9C231.4,57.3,223.2,52.6,214.3,50.7z"/>
	<path class="st0" d="M135.1,11.3l-9.1,8.8l12.8,13.3l9.1-8.8c8.8-8.4,22.8-8.2,31.1,0.6c8.4,8.7,8.1,22.6-0.6,31.1l-9.1,8.7
		l12.8,13.3l9.1-8.7c16.1-15.5,16.5-41,1-57.1C176.7-3.7,151.2-4.2,135.1,11.3z"/>
</g>
</svg>
