<?xml version="1.0" encoding="utf-8"?>
<!-- Generator: Adobe Illustrator 22.1.0, SVG Export Plug-In . SVG Version: 6.00 Build 0)  -->
<svg version="1.1" id="Layer_1" xmlns="http://www.w3.org/2000/svg" xmlns:xlink="http://www.w3.org/1999/xlink" x="0px" y="0px"
	 width="106px" height="143px" viewBox="0 0 106 143" style="enable-background:new 0 0 106 143;" xml:space="preserve">
<style type="text/css">
	.st0{fill:#004D71;}
	.st1{fill:#3F96B4;}
</style>
<path class="st0" d="M9.8,26.3l90.1,93.6l-9.5,9.2l-14.2-14.7l-14.1,13.6c-6.6,6.3-15.2,9.7-24.3,9.6l0,0
	c-9.1-0.2-17.6-3.9-23.9-10.4c-6.3-6.6-9.7-15.2-9.6-24.3c0.2-9.1,3.9-17.6,10.4-24l9.4-9l9.2,9.5l-9.4,9.1c-4,3.9-6.3,9.1-6.4,14.7
	c-0.1,5.6,2,10.9,5.9,14.9c3.9,4,9.1,6.3,14.7,6.4l0,0c5.6,0.1,10.9-2,14.9-5.9l14.1-13.6L9.8,45.4L9.8,26.3L9.8,26.3z"/>
<path class="st1" d="M75.1,41.3v13.6c2.9,1.1,5.3,2.8,7.6,5.1c3.9,4,6,9.3,5.9,14.9c-0.1,5.6-2.4,10.8-6.4,14.7l-1.2,1.1l9.2,9.4
	l1.2-1.1c6.6-6.3,10.3-14.9,10.4-24c0.2-9.1-3.2-17.8-9.6-24.3C87.4,46,81.5,42.7,75.1,41.3z"/>
<path class="st1" d="M18.4,13.1l-6.5,6.3l9.2,9.5l6.5-6.3c6.3-6,16.3-5.9,22.3,0.4c6,6.2,5.8,16.2-0.4,22.3l-6.5,6.2l9.2,9.5
	l6.5-6.2C70,43.6,70.4,25.3,59.3,13.8C48.2,2.3,29.9,2,18.4,13.1z"/>
</svg>
