<?xml version="1.0" encoding="utf-8"?>
<!-- Generator: Adobe Illustrator 22.1.0, SVG Export Plug-In . SVG Version: 6.00 Build 0)  -->
<svg version="1.1" id="Layer_1" xmlns="http://www.w3.org/2000/svg" xmlns:xlink="http://www.w3.org/1999/xlink" x="0px" y="0px"
	 viewBox="0 0 295.3 37.4" style="enable-background:new 0 0 295.3 37.4;" xml:space="preserve">
<style type="text/css">
	.st0{fill:#003E5F;}
	.st1{fill:#2A85A6;}
	.st2{fill:#003E5F;stroke:#003E5F;stroke-miterlimit:10;}
	.st3{fill:#2A85A6;stroke:#2A85A6;stroke-miterlimit:10;}
</style>
<g id="Group_1932" transform="translate(-29.457 -28.393)">
	<g id="Group_1931" transform="translate(29.457 31.934)">
		<path id="Path_478" class="st0" d="M56.1,5.4l23,23.9l-2.4,2.3l-3.6-3.8l-3.6,3.5c-1.7,1.6-3.9,2.5-6.2,2.5h0
			c-4.8-0.1-8.6-4.1-8.6-8.9c0-2.3,1-4.5,2.7-6.1l2.4-2.3l2.3,2.4l-2.4,2.3c-2.1,2-2.2,5.4-0.2,7.6c1,1,2.3,1.6,3.8,1.6h0
			c1.4,0,2.8-0.5,3.8-1.5l3.6-3.5L56.1,10.3L56.1,5.4L56.1,5.4z M13.7,6v22.7h-2.2v-2.4c-1,1.8-3,2.8-5.1,2.7c-3.6,0-6.5-3-6.5-6.9
			c0-4,2.8-6.9,6.4-6.9c2.1-0.1,4.1,1.1,5.1,3V6L13.7,6z M11.6,22.1c0.2-2.5-1.7-4.7-4.3-4.9c-0.1,0-0.3,0-0.4,0
			c-2.8,0-4.6,2.1-4.6,4.9c0,2.9,1.8,5,4.6,5c2.6,0.1,4.7-2,4.7-4.5C11.6,22.4,11.6,22.2,11.6,22.1L11.6,22.1z M28.3,22.8
			c0.2,2.1-1.4,4-3.6,4.2c-0.2,0-0.4,0-0.6,0c-2.2,0-3.3-1.3-3.3-3.6v-7.9h-2.2v8.2c0,3.4,2,5.4,5,5.4c1.9,0.2,3.8-0.8,4.7-2.5v2.2
			h2.2V15.5h-2.2V22.8z M42.8,15.2C40.8,15,39,16,38,17.7v-2.3h-2.2v13.3H38v-7.3c-0.2-2.1,1.4-4,3.6-4.2c0.2,0,0.4,0,0.6,0
			c2.2,0,3.3,1.3,3.3,3.7v7.8h2.2v-8.1C47.7,17.2,45.7,15.2,42.8,15.2L42.8,15.2z"/>
		<g id="Group_1930" transform="translate(56.629 0)">
			<path id="Path_479" class="st1" d="M65.4,15.2c-2.1-0.1-4.2,0.9-5.4,2.6l1.4,1.3c0.9-1.3,2.3-2,3.9-1.9c2,0,3.1,1,3.1,3.6V21
				h-4.1c-2.8,0-5,1.3-5,4c0,2.8,2.1,4,4.9,4c2,0,3.4-0.5,4.3-1.8v1.5h2.1v-8.2C70.5,16.9,68.4,15.2,65.4,15.2z M68.4,24.3
				c0,1.7-1.7,2.9-3.8,2.9c-2.1,0-3.2-0.8-3.2-2.3c0-1.6,1.3-2.2,3-2.2h4V24.3z"/>
			<path id="Path_480" class="st1" d="M37.6,15.2c-2.5,0-4.1,0.9-5.1,2.7V6h-2.2v22.7h2.2v-2.4c1,1.8,3,2.8,5.1,2.7
				c3.6,0,6.5-3,6.5-6.9C44.1,18.1,41.3,15.2,37.6,15.2z M37.1,27.1c-2.7-0.1-4.8-2.4-4.7-5.2c0.1-2.6,2.2-4.6,4.7-4.7
				c2.8,0,4.6,2.1,4.6,4.9C41.7,25,39.9,27.1,37.1,27.1z"/>
			<path id="Path_481" class="st1" d="M16.2,9.3v3.5c0.7,0.3,1.4,0.7,1.9,1.3c2.1,2.1,2,5.5-0.1,7.6l-0.3,0.3l2.4,2.4l0.3-0.3
				c3.5-3.3,3.6-8.9,0.2-12.3C19.3,10.5,17.8,9.6,16.2,9.3L16.2,9.3z"/>
			<path id="Path_482" class="st1" d="M1.7,2.1L0,3.7l2.3,2.4L4,4.5c1.6-1.6,4.1-1.6,5.7,0c1.6,1.6,1.6,4.1,0,5.7
				c0,0-0.1,0.1-0.1,0.1l-1.7,1.6l2.3,2.4l1.7-1.6c2.9-2.8,3-7.5,0.2-10.4S4.6-0.8,1.7,2.1C1.7,2.1,1.7,2.1,1.7,2.1L1.7,2.1z"/>
			<path id="Path_483" class="st1" d="M51,17.6v-2.1h-2.2v13.3H51v-7c0-3.1,1.5-4.5,3.4-4.5c0.6,0,1.3,0.2,1.8,0.5l0.9-2
				c-0.7-0.5-1.5-0.7-2.3-0.6C53.2,15.1,51.6,16.1,51,17.6z"/>
			<path id="Path_484" class="st1" d="M113,27.1c-1,0-1.6-0.5-1.6-2.3v-7.4h3.7v-1.9h-3.7V6h-2.2v9.4h-2.1v1.9h2.1v7.4
				c0,3.1,1.5,4.3,3.6,4.3c1.2,0,2.4-0.4,3.2-1.3l-1.2-1.4C114.3,26.8,113.7,27.1,113,27.1z"/>
			<path id="Path_485" class="st1" d="M155.1,15.2c-3.8,0-6.8,3-6.9,6.8c0,0.1,0,0.1,0,0.2c0,3.9,2.8,6.9,7.2,6.9
				c2.1,0.1,4.2-0.7,5.6-2.3l-1.4-1.3c-1.1,1.2-2.6,1.8-4.2,1.8c-2.5,0.2-4.7-1.7-4.9-4.2c0,0,0,0,0-0.1h11.3
				C162,18.5,159.4,15.2,155.1,15.2z M150.5,21.2c0.2-2.4,2.2-4.2,4.6-4.1c2.3-0.2,4.3,1.6,4.4,3.9c0,0.1,0,0.1,0,0.2H150.5z"/>
			<path id="Path_486" class="st1" d="M137.8,15.2c-3.8,0-6.8,3-6.9,6.8c0,0.1,0,0.1,0,0.2c0,3.9,2.8,6.9,7.2,6.9
				c2.1,0.1,4.2-0.7,5.6-2.3l-1.4-1.3c-1.1,1.2-2.6,1.8-4.2,1.8c-2.5,0.2-4.7-1.7-4.9-4.2c0,0,0,0,0-0.1h11.3
				C144.6,18.5,142,15.2,137.8,15.2z M133.2,21.2c0.2-2.4,2.2-4.2,4.6-4.1c2.3-0.2,4.3,1.6,4.4,3.9c0,0.1,0,0.1,0,0.2H133.2z"/>
			<path id="Path_487" class="st1" d="M173,26.3c-0.5,0.5-1.1,0.8-1.8,0.8c-1,0-1.6-0.5-1.6-2.3v-7.4h3.7v-1.9h-3.7V6h-2.2v9.4h-2.1
				v1.9h2.1v7.4c0,3.1,1.5,4.3,3.6,4.3c1.2,0,2.4-0.4,3.2-1.3L173,26.3z"/>
			<path id="Path_488" class="st1" d="M122.9,17.6v-2.1h-2.2v13.3h2.2v-7c0-3.1,1.5-4.5,3.4-4.5c0.6,0,1.3,0.2,1.8,0.5l0.9-2
				c-0.7-0.5-1.5-0.7-2.3-0.6C125.1,15.1,123.5,16.1,122.9,17.6z"/>
			<path id="Path_489" class="st1" d="M99.2,21c-2.3-0.7-3.1-1-3.1-2.3c0-1,0.9-1.7,2.3-1.7c1.2,0,2.2,0.5,2.9,1.5l1.5-1.2
				c-1-1.4-2.7-2.2-4.4-2.2c-2.4,0-4.4,1.3-4.4,3.6c0,2.5,1.9,3.3,4,4c2.3,0.7,3.5,1,3.5,2.4c0,1.2-1,2-2.8,2
				c-1.6,0-3.1-0.8-3.9-2.2l-1.7,1c1.1,2,3.4,3.2,5.7,3.1c3.3,0,4.8-1.7,4.8-4C103.6,22.5,101.5,21.6,99.2,21z"/>
			<path id="Path_490" class="st1" d="M86.5,17.9c-1-1.8-2.6-2.7-5.1-2.7c-3.6,0-6.4,3-6.4,6.9c0,4,2.8,6.9,6.5,6.9
				c2.1,0.2,4-0.9,5.1-2.7v2.4h2.2V6h-2.2V17.9z M81.8,27.1c-2.8,0-4.6-2.1-4.6-5c0-2.9,1.8-4.9,4.6-4.9c2.7,0.1,4.8,2.4,4.7,5.2
				C86.4,24.9,84.4,27,81.8,27.1z"/>
		</g>
	</g>
	<path id="Path_491" class="st2" d="M303.3,57.5h-22.5v0c-5-0.5-8.8-4.8-8.6-9.8c0-5.4,4.2-9.9,9.3-9.9c0.8,0,1.7,0.1,2.5,0.4
		l-3.4-3.4c-7.1,0.9-12.2,7.4-11.3,14.6c0.7,5.8,5.2,10.4,10.9,11.3c0.4,0.1,0.9,0.1,1.3,0.1h25L303.3,57.5z"/>
	<path id="Path_492" class="st3" d="M318.4,44.9c-1.3-4.1-5-6.9-9.2-6.9c-0.1,0-0.2,0-0.2,0c-2-5.4-7.1-9-12.9-9.1
		c-4.5,0-8.7,2.2-11.2,5.9l2.3,2.3c1.9-3.1,5.3-5,9-5.1c5.4,0.1,10,4.2,10.7,9.6c0.8-0.3,1.6-0.5,2.5-0.5c3.7,0.1,6.6,3.1,6.6,6.7
		c0.2,0,0.5-0.1,0.8-0.1c2.7,0.2,4.7,2.5,4.6,5.1c-0.1,2.4-2.1,4.4-4.6,4.6c0,0-0.1,0-0.1,0v0h-9l3.1,3.1h6c4.3-0.1,7.8-3.6,7.7-8
		C324.3,49,321.9,45.8,318.4,44.9z"/>
</g>
</svg>
