<?xml version="1.0" encoding="utf-8"?>
<!-- Generator: Adobe Illustrator 19.1.0, SVG Export Plug-In . SVG Version: 6.00 Build 0)  -->
<svg version="1.1" id="Layer_1" xmlns="http://www.w3.org/2000/svg" xmlns:xlink="http://www.w3.org/1999/xlink" x="0px" y="0px"
	 viewBox="0 0 281.6 383.2" style="enable-background:new 0 0 281.6 383.2;" xml:space="preserve">
<style type="text/css">
	.st0{fill:#FFFFFF;}
</style>
<g>
	<path class="st0" d="M253.9,132.6c18.3,19,28.1,43.9,27.7,70.3c-0.5,26.4-11.2,51-30.2,69.3l-3.4,3.1l-26.7-27.2l3.6-3.3
		c11.7-11.3,18.3-26.4,18.6-42.6c0.3-16.2-5.7-31.5-17-43.2c-6.4-6.7-13.4-11.6-21.9-14.7v-39.4C223.3,109,240.4,118.5,253.9,132.6
		 M40.7,23.5L21.8,41.6L48.3,69l18.9-18.1c18.1-17.5,47-17,64.5,1c17.4,18.1,16.9,47-1.2,64.5l-18.8,18l26.5,27.4l18.8-18
		c33.2-32.1,34.2-85.2,2.1-118.3C127-7.7,73.9-8.6,40.7,23.5"/>
	<path class="st0" d="M15.8,61.6l260.7,270.6l-27.4,26.5L208,316.1l-40.7,39.3c-19,18.3-44,28.2-70.3,27.8l-0.1,0
		C70.5,382.7,46,372,27.7,353C9.4,334.1-0.5,309.1,0,282.7c0.5-26.4,11.2-51,30.2-69.3l27.2-26.1L84,214.6l-27.3,26.2
		c-11.7,11.3-18.3,26.4-18.6,42.6c-0.3,16.2,5.7,31.5,17,43.2c11.2,11.6,26.3,18.2,42.5,18.5l0.1,0c16.2,0.3,31.6-5.8,43.2-17.1
		l40.6-39.3L15.8,116.9L15.8,61.6L15.8,61.6z"/>
</g>
</svg>
